<svg width="86" height="94" viewBox="0 0 86 94" fill="none" xmlns="http://www.w3.org/2000/svg">
<path d="M22.8978 19.3096C23.7174 15.1526 27.8877 12.5604 31.9781 13.6654V13.6654C36.0235 14.7582 38.3246 19.0205 37.019 23.0023L15.2327 89.4419C14.778 90.8284 13.4009 91.6951 11.9541 91.5052V91.5052C10.2164 91.2772 9.03254 89.6287 9.37158 87.9092L22.8978 19.3096Z" fill="#F8C747"/>
<path d="M31.6162 64.9096C28.7723 61.527 29.6744 56.3963 33.5016 54.1866V54.1866C37.2282 52.0351 41.9969 53.6648 43.6272 57.6471L52.1989 78.5849C52.8473 80.1688 52.2777 81.9899 50.8423 82.9221V82.9221C49.3343 83.9014 47.3328 83.6033 46.1757 82.2269L31.6162 64.9096Z" fill="#F8C747"/>
<rect x="78.6602" y="39.5822" width="7.95969" height="78.6604" rx="3.97984" transform="rotate(90 78.6602 39.5822)" fill="#F8C747"/>
<path fill-rule="evenodd" clip-rule="evenodd" d="M49.5784 14.3361C48.4377 15.8676 47.702 17.6323 47.4925 19.5543C46.721 26.6329 53.3796 33.165 62.3648 34.1443C67.3747 34.6904 72.0501 33.3948 75.3403 30.9146C72.4573 34.9445 67.2555 37.5746 61.3753 37.4446C52.5165 37.2487 45.4727 30.8623 45.6425 23.1802C45.7176 19.7824 47.1914 16.7002 49.5784 14.3361Z" fill="#FCEBE3"/>
<path fill-rule="evenodd" clip-rule="evenodd" d="M75.4648 21.228C77.942 20.2348 80.119 20.238 80.9889 21.4319C82.2512 23.1646 80.2829 26.7487 76.5926 29.4374C76.2043 29.7202 75.8126 29.9818 75.4208 30.2216C76.4899 29.7253 77.6073 29.069 78.7063 28.2683C82.7343 25.3337 84.9908 21.57 83.7463 19.8618C82.6316 18.3318 79.0865 18.9698 75.4648 21.228Z" fill="#FCEBE3"/>
<path fill-rule="evenodd" clip-rule="evenodd" d="M77.2615 22.7719C77.9292 22.5678 78.4915 22.6126 78.7355 22.9474C79.1431 23.5069 78.5075 24.6643 77.3158 25.5326C77.0204 25.7478 76.7186 25.925 76.4255 26.0613C76.9141 25.9008 77.4631 25.6168 77.9985 25.2267C79.2993 24.2791 80.0279 23.0637 79.6261 22.512C79.298 22.0617 78.318 22.193 77.2615 22.7719Z" fill="#FCEBE3"/>
<ellipse cx="63.0364" cy="17.2412" rx="10.4922" ry="2.20982" transform="rotate(-0.108764 63.0364 17.2412)" fill="#F9A565"/>
<path d="M64.9171 5.86721C68.8976 0.946157 64.0974 0.259002 62.2603 0C64.4036 0.487234 62.8726 3.36702 61.9541 4.66203C60.4843 6.52684 60.219 7.77005 60.1169 8.28806C59.6822 10.4945 61.3652 12.1868 61.8551 12.6013C60.3854 10.1148 63.3861 7.4212 64.9171 5.86721Z" fill="#FCEBE3"/>
<path d="M68.1137 10.1451C71.5139 7.39017 68.6467 6.11002 67.5487 5.62285C68.7953 6.31985 67.3037 8.06553 66.4893 8.81207C65.225 9.86251 64.8279 10.6823 64.6677 11.0252C63.9856 12.4862 64.7205 13.9439 64.949 14.3138C64.495 12.3399 66.869 10.9693 68.1137 10.1451Z" fill="#FCEBE3"/>
</svg>
