<svg width="1920" height="228" viewBox="0 0 1920 228" fill="none" xmlns="http://www.w3.org/2000/svg">
<g clip-path="url(#clip0_477_1595)">
<rect width="1920" height="6524" transform="translate(0 -3509)" fill="white"/>
<path d="M1595.52 60C2057.52 326.797 1689.52 1280.5 1030.02 1280.5C1030.02 1280.5 -457.483 1117.5 263.017 2252.5" stroke="#EDDBD4" stroke-width="6" stroke-linecap="round" stroke-dasharray="20 40 60 80"/>
<path d="M-19.2411 -57C-19.2411 -57 -68.5305 50.1158 249.562 126.662C640.584 220.758 906.233 116.666 1302 51.2003C1564.71 7.74462 1932 126.662 1932 126.662V1208.52C1932 1208.52 1723.45 1050.98 1496.53 1093.67C1210.21 1147.52 633.277 1324.12 313.878 1208.52C31.3543 1106.27 -19.2411 1050.98 -19.2411 1050.98V-57Z" fill="#FFEFC6"/>
</g>
<defs>
<clipPath id="clip0_477_1595">
<rect width="1920" height="6524" fill="white" transform="translate(0 -3509)"/>
</clipPath>
</defs>
</svg>
